<svg width="15" height="14" viewBox="0 0 15 14" fill="none" xmlns="http://www.w3.org/2000/svg">
<path d="M14.375 7L12.85 5.25625L13.0625 2.95L10.8063 2.4375L9.625 0.4375L7.5 1.35L5.375 0.4375L4.19375 2.43125L1.9375 2.9375L2.15 5.25L0.625 7L2.15 8.74375L1.9375 11.0562L4.19375 11.5687L5.375 13.5625L7.5 12.6438L9.625 13.5562L10.8063 11.5625L13.0625 11.05L12.85 8.74375L14.375 7ZM5.8625 9.50625L4.375 8.00625C4.13125 7.7625 4.13125 7.36875 4.375 7.125L4.41875 7.08125C4.6625 6.8375 5.0625 6.8375 5.30625 7.08125L6.3125 8.09375L9.53125 4.86875C9.775 4.625 10.175 4.625 10.4187 4.86875L10.4625 4.9125C10.7063 5.15625 10.7063 5.55 10.4625 5.79375L6.7625 9.50625C6.50625 9.75 6.1125 9.75 5.8625 9.50625Z" fill="#008FFF"/>
</svg>
